<svg width="120" height="120" viewBox="0 0 120 120" fill="none" xmlns="http://www.w3.org/2000/svg">
  <defs>
    <linearGradient id="shieldStroke" x1="0" y1="0" x2="0" y2="1">
      <stop offset="0%" stop-color="#e8d9b8" />
      <stop offset="100%" stop-color="#a48655" />
    </linearGradient>
    <linearGradient id="shieldFill" x1="0" y1="0" x2="1" y2="1">
      <stop offset="0%" stop-color="rgba(255,255,255,0.04)" />
      <stop offset="100%" stop-color="rgba(212,175,111,0.06)" />
    </linearGradient>
  </defs>
  <path d="M60 8 L102 22 V58 C102 82 84 102 60 112 C36 102 18 82 18 58 V22 Z"
        stroke="url(#shieldStroke)" stroke-width="1.4" fill="url(#shieldFill)" />
  <g stroke="#d4af6f" stroke-width="0.9" stroke-linecap="round" opacity="0.85">
    <line x1="40" y1="42" x2="56" y2="42" /><line x1="64" y1="42" x2="80" y2="42" />
    <line x1="40" y1="60" x2="80" y2="60" />
    <line x1="40" y1="78" x2="56" y2="78" /><line x1="64" y1="78" x2="80" y2="78" />
    <line x1="40" y1="42" x2="40" y2="78" /><line x1="80" y1="42" x2="80" y2="78" />
    <line x1="60" y1="32" x2="60" y2="42" /><line x1="60" y1="78" x2="60" y2="88" />
  </g>
  <g fill="#e8d9b8">
    <circle cx="40" cy="42" r="2" /><circle cx="60" cy="42" r="2.4" /><circle cx="80" cy="42" r="2" />
    <circle cx="40" cy="60" r="2" /><circle cx="80" cy="60" r="2" />
    <circle cx="40" cy="78" r="2" /><circle cx="60" cy="78" r="2.4" /><circle cx="80" cy="78" r="2" />
    <circle cx="60" cy="32" r="1.6" /><circle cx="60" cy="88" r="1.6" />
  </g>
  <circle cx="60" cy="60" r="3" fill="#e8b341" />
</svg>